<svg id="visual" viewBox="0 0 900 600" width="900" height="600" xmlns="http://www.w3.org/2000/svg" xmlns:xlink="http://www.w3.org/1999/xlink" version="1.1"><rect x="0" y="0" width="900" height="600" fill="#ffffff"></rect><path d="M0 430L21.5 419.2C43 408.3 86 386.7 128.8 389.3C171.7 392 214.3 419 257.2 424C300 429 343 412 385.8 400.8C428.7 389.7 471.3 384.3 514.2 392.2C557 400 600 421 642.8 419C685.7 417 728.3 392 771.2 392.8C814 393.7 857 420.3 878.5 433.7L900 447L900 601L878.5 601C857 601 814 601 771.2 601C728.3 601 685.7 601 642.8 601C600 601 557 601 514.2 601C471.3 601 428.7 601 385.8 601C343 601 300 601 257.2 601C214.3 601 171.7 601 128.8 601C86 601 43 601 21.5 601L0 601Z" fill="#4b9400"></path><path d="M0 458L21.5 459.2C43 460.3 86 462.7 128.8 452C171.7 441.3 214.3 417.7 257.2 413C300 408.3 343 422.7 385.8 423.2C428.7 423.7 471.3 410.3 514.2 411.2C557 412 600 427 642.8 437.2C685.7 447.3 728.3 452.7 771.2 453.7C814 454.7 857 451.3 878.5 449.7L900 448L900 601L878.5 601C857 601 814 601 771.2 601C728.3 601 685.7 601 642.8 601C600 601 557 601 514.2 601C471.3 601 428.7 601 385.8 601C343 601 300 601 257.2 601C214.3 601 171.7 601 128.8 601C86 601 43 601 21.5 601L0 601Z" fill="#359630"></path><path d="M0 455L21.5 454.8C43 454.7 86 454.3 128.8 462.7C171.7 471 214.3 488 257.2 496C300 504 343 503 385.8 503.8C428.7 504.7 471.3 507.3 514.2 508.3C557 509.3 600 508.7 642.8 508.2C685.7 507.7 728.3 507.3 771.2 498C814 488.7 857 470.3 878.5 461.2L900 452L900 601L878.5 601C857 601 814 601 771.2 601C728.3 601 685.7 601 642.8 601C600 601 557 601 514.2 601C471.3 601 428.7 601 385.8 601C343 601 300 601 257.2 601C214.3 601 171.7 601 128.8 601C86 601 43 601 21.5 601L0 601Z" fill="#1d964b"></path><path d="M0 488L21.5 489.3C43 490.7 86 493.3 128.8 497.7C171.7 502 214.3 508 257.2 506.3C300 504.7 343 495.3 385.8 497.2C428.7 499 471.3 512 514.2 519.7C557 527.3 600 529.7 642.8 530.7C685.7 531.7 728.3 531.3 771.2 524.7C814 518 857 505 878.5 498.5L900 492L900 601L878.5 601C857 601 814 601 771.2 601C728.3 601 685.7 601 642.8 601C600 601 557 601 514.2 601C471.3 601 428.7 601 385.8 601C343 601 300 601 257.2 601C214.3 601 171.7 601 128.8 601C86 601 43 601 21.5 601L0 601Z" fill="#009561"></path><path d="M0 545L21.5 548.7C43 552.3 86 559.7 128.8 559.3C171.7 559 214.3 551 257.2 545.2C300 539.3 343 535.7 385.8 539C428.7 542.3 471.3 552.7 514.2 551.7C557 550.7 600 538.3 642.8 532.7C685.7 527 728.3 528 771.2 528C814 528 857 527 878.5 526.5L900 526L900 601L878.5 601C857 601 814 601 771.2 601C728.3 601 685.7 601 642.8 601C600 601 557 601 514.2 601C471.3 601 428.7 601 385.8 601C343 601 300 601 257.2 601C214.3 601 171.7 601 128.8 601C86 601 43 601 21.5 601L0 601Z" fill="#009473"></path></svg>